# xmcd
#
# Track frame offsets:
#  150
#  17522
#  33922
#
# Disc length: 683 seconds
#
# Revision: 0
# Processed by: cddbd v1.5.2PL0 Copyright (c) Steve Scherf et al.
# Submitted via: AltoMP3_Maker 3.0
#
DISCID=1502a903
DTITLE=Höhner - Levve un levve losse
DYEAR=1900
DGENRE=
TTITLE0=Levve un levve losse
TTITLE1=Fussije Mädche'
TTITLE2=Wie mr et määt
EXTD=
EXTT0=
EXTT1=
EXTT2=
PLAYORDER=
